<svg xmlns="http://www.w3.org/2000/svg" xmlns:xlink="http://www.w3.org/1999/xlink" width="15" height="13" viewBox="0 0 15 13">
  <defs>
    <polygon id="sub_nav_text_decorator-a" points="0 0 0 13 15 13 15 0 0 0"/>
  </defs>
  <g fill="none" fill-rule="evenodd" transform="matrix(-1 0 0 1 15 0)">
    <mask id="sub_nav_text_decorator-b" fill="#fff">
      <use xlink:href="#sub_nav_text_decorator-a"/>
    </mask>
    <path fill="#BA9653" d="M15,6.5 C15,6.5 12.9264105,7.401564 10.852821,8.58224722 C8.77923154,9.76293044 8.52791427,10.2426945 8.30323841,11.0301139 C8.07856255,11.8175333 8.27570896,13 8.27570896,13 L5.52986798,12.240225 C6.90278847,11.2271917 6.76336511,10.1017972 6.59374815,9.00404719 C6.42590729,7.90718891 5.25013321,7.99101386 5.25013321,7.99101386 L4.21289444,11.3948415 L0,6.48216491 L4.21289444,1.6042667 L5.25013321,5.00898614 C5.25013321,5.00898614 6.42590729,5.09459459 6.59374815,3.99595281 C6.76336511,2.89909453 6.90278847,1.7737001 5.52986798,0.759775003 L8.27570896,0 C8.27570896,0 8.07856255,1.18335849 8.30323841,1.97077788 C8.52791427,2.75819728 8.77923154,3.23706956 10.852821,4.41775278 C12.9264105,5.59932775 15,6.5 15,6.5" mask="url(#sub_nav_text_decorator-b)"/>
  </g>
</svg>
